<svg xmlns="http://www.w3.org/2000/svg" width="20" height="18" viewBox="0 0 20 18" fill="none">
  <path d="M3.16235 13.5V9C3.16235 7.20979 3.90685 5.4929 5.23206 4.22703C6.55726 2.96116 8.35463 2.25 10.2288 2.25C12.1029 2.25 13.9003 2.96116 15.2255 4.22703C16.5507 5.4929 17.2952 7.20979 17.2952 9V13.5" stroke="black" stroke-width="1.33333" stroke-linecap="round" stroke-linejoin="round"/>
  <path d="M17.2952 14.25C17.2952 14.6478 17.1297 15.0294 16.8352 15.3107C16.5407 15.592 16.1413 15.75 15.7249 15.75H14.9397C14.5232 15.75 14.1238 15.592 13.8293 15.3107C13.5348 15.0294 13.3694 14.6478 13.3694 14.25V12C13.3694 11.6022 13.5348 11.2206 13.8293 10.9393C14.1238 10.658 14.5232 10.5 14.9397 10.5H17.2952V14.25ZM3.16235 14.25C3.16235 14.6478 3.3278 15.0294 3.62229 15.3107C3.91678 15.592 4.31619 15.75 4.73267 15.75H5.51782C5.9343 15.75 6.33371 15.592 6.6282 15.3107C6.92269 15.0294 7.08813 14.6478 7.08813 14.25V12C7.08813 11.6022 6.92269 11.2206 6.6282 10.9393C6.33371 10.658 5.9343 10.5 5.51782 10.5H3.16235V14.25Z" stroke="black" stroke-width="1.33333" stroke-linecap="round" stroke-linejoin="round"/>
</svg>